<svg width="117" height="104" viewBox="0 0 117 104" fill="none" xmlns="http://www.w3.org/2000/svg">
<path d="M115.814 1.912H116.814V0.911997H115.814V1.912ZM115.814 103V104H116.814V103H115.814ZM91.1903 103H90.1903V104H91.1903V103ZM91.1903 42.376H92.1903L90.2533 42.0266L91.1903 42.376ZM68.5823 103V104H69.2766L69.5192 103.349L68.5823 103ZM48.7103 103L47.7737 103.351L48.0169 104H48.7103V103ZM25.9583 42.232L26.8948 41.8814L24.9583 42.232H25.9583ZM25.9583 103V104H26.9583V103H25.9583ZM1.33425 103H0.334249V104H1.33425V103ZM1.33425 1.912V0.911997H0.334249V1.912H1.33425ZM30.4222 1.912L31.349 1.53634L31.0959 0.911997H30.4222V1.912ZM58.7903 71.896L57.8635 72.2717L58.795 74.5696L59.7183 72.2684L58.7903 71.896ZM86.8703 1.912V0.911997H86.194L85.9422 1.53962L86.8703 1.912ZM114.814 1.912V103H116.814V1.912H114.814ZM115.814 102H91.1903V104H115.814V102ZM92.1903 103V42.376H90.1903V103H92.1903ZM90.2533 42.0266L67.6453 102.651L69.5192 103.349L92.1272 42.7254L90.2533 42.0266ZM68.5823 102H48.7103V104H68.5823V102ZM49.6468 102.649L26.8948 41.8814L25.0217 42.5826L47.7737 103.351L49.6468 102.649ZM24.9583 42.232V103H26.9583V42.232H24.9583ZM25.9583 102H1.33425V104H25.9583V102ZM2.33425 103V1.912H0.334249V103H2.33425ZM1.33425 2.912H30.4222V0.911997H1.33425V2.912ZM29.4955 2.28766L57.8635 72.2717L59.717 71.5203L31.349 1.53634L29.4955 2.28766ZM59.7183 72.2684L87.7983 2.28437L85.9422 1.53962L57.8622 71.5236L59.7183 72.2684ZM86.8703 2.912H115.814V0.911997H86.8703V2.912Z" fill="black"/>
</svg>
